<?xml version="1.0" encoding="UTF-8"?>
<svg width="57px" height="56px" viewBox="0 0 57 56" version="1.1" xmlns="http://www.w3.org/2000/svg" xmlns:xlink="http://www.w3.org/1999/xlink">
    <title>Group</title>
    <defs>
        <linearGradient x1="50%" y1="19.2864583%" x2="50%" y2="93.1432292%" id="linearGradient-1">
            <stop stop-color="#FFFDFC" offset="0%"></stop>
            <stop stop-color="#F8E7EC" offset="100%"></stop>
        </linearGradient>
        <polygon id="path-2" points="0 0 56 0 56 56 0 56"></polygon>
        <path d="M28,0 C12.5359401,0 0,12.5359401 0,28 C0,43.4640599 12.5359401,56 28,56 C43.4640599,56 56,43.4640599 56,28 C56,12.5359401 43.4640599,0 28,0 Z" id="path-4"></path>
        <rect id="path-6" x="0" y="0" width="56.1346982" height="56.1346982"></rect>
        <polygon id="path-8" points="0 0 56 0 56 56 0 56"></polygon>
        <path d="M28,0 C12.5359401,0 0,12.5359401 0,28 C0,43.4640599 12.5359401,56 28,56 C43.4640599,56 56,43.4640599 56,28 C56,12.5359401 43.4640599,0 28,0 Z" id="path-10"></path>
        <polygon id="path-12" points="0 0 42.3265649 0 42.3265649 42.3265649 0 42.3265649"></polygon>
    </defs>
    <g id="Page-1" stroke="none" stroke-width="1" fill="none" fill-rule="evenodd">
        <g id="Stack" transform="translate(-247, -190)">
            <g id="Stack-3" transform="translate(0, 180)">
                <g id="Clipped" transform="translate(247.5, 10)">
                    <g>
                        <mask id="mask-3" fill="white">
                            <use xlink:href="#path-2"></use>
                        </mask>
                        <g id="Path"></g>
                        <g mask="url(#mask-3)">
                            <g transform="translate(0, -0)">
                                <mask id="mask-5" fill="white">
                                    <use xlink:href="#path-4"></use>
                                </mask>
                                <g id="Path" stroke="none" fill="none"></g>
                                <g id="Group" stroke="none" stroke-width="1" fill="none" fill-rule="evenodd" mask="url(#mask-5)">
                                    <g transform="translate(-0.0673, -0.0673)">
                                        <mask id="mask-7" fill="white">
                                            <use xlink:href="#path-6"></use>
                                        </mask>
                                        <g id="Rectangle" stroke="none" fill="none"></g>
                                        <g id="Clipped" stroke="none" stroke-width="1" fill="none" fill-rule="evenodd" mask="url(#mask-7)">
                                            <g transform="translate(0.0673, 0.0673)">
                                                <mask id="mask-9" fill="white">
                                                    <use xlink:href="#path-8"></use>
                                                </mask>
                                                <g id="Path" stroke="none" fill="none"></g>
                                                <g id="Clipped" stroke="none" stroke-width="1" fill="none" fill-rule="evenodd" mask="url(#mask-9)">
                                                    <g transform="translate(0, 0)">
                                                        <mask id="mask-11" fill="white">
                                                            <use xlink:href="#path-10"></use>
                                                        </mask>
                                                        <g id="Path" stroke="none" fill="none"></g>
                                                        <polygon id="Path" stroke="none" fill="#E8A8B9" fill-rule="evenodd" mask="url(#mask-11)" points="0 0 56 0 56 56 0 56"></polygon>
                                                    </g>
                                                </g>
                                            </g>
                                        </g>
                                    </g>
                                </g>
                            </g>
                        </g>
                    </g>
                    <g transform="translate(6.8367, 6.8367)">
                        <mask id="mask-13" fill="white">
                            <use xlink:href="#path-12"></use>
                        </mask>
                        <g id="Path"></g>
                        <path d="M21.1632824,0 C9.4942664,0 0,9.4942664 0,21.1632824 C0,32.8322985 9.4942664,42.3265649 21.1632824,42.3265649 C32.8322985,42.3265649 42.3265649,32.8322985 42.3265649,21.1632824 C42.3265649,9.4942664 32.8322985,0 21.1632824,0 Z M21.1632824,40.3111819 C10.6051351,40.3111819 2.01538292,31.7214298 2.01538292,21.1632824 C2.01538292,10.6051351 10.6051351,2.01538292 21.1632824,2.01538292 C31.7214298,2.01538292 40.3111819,10.6051351 40.3111819,21.1632824 C40.3111819,31.7214298 31.7214298,40.3111819 21.1632824,40.3111819 Z M30.0067684,28.5889131 C30.3583935,29.0208089 30.2933937,29.655535 29.8622811,30.0067684 C29.6751132,30.1594787 29.4499637,30.2330928 29.2263803,30.2330928 C28.9330984,30.2330928 28.6437322,30.1062259 28.4440342,29.8622811 C26.4650668,27.433406 24.0154388,26.202327 21.1632824,26.202327 C18.311126,26.202327 15.861498,27.433406 13.8825307,29.8622811 C13.5320804,30.2941769 12.8985288,30.3591766 12.4642837,30.0067684 C12.0331711,29.655535 11.9681714,29.0208089 12.3197964,28.5889131 C14.6668345,25.7089556 17.7245622,24.1865525 21.1632824,24.1865525 C24.6020026,24.1865525 27.6597304,25.7089556 30.0067684,28.5889131 Z M32.2488673,15.1167422 C32.2488673,15.673547 31.7981764,16.1242379 31.24098,16.1242379 L30.0600212,16.1242379 C29.6993903,16.1242379 29.3415003,16.1653521 28.9890921,16.2319182 C29.1284892,16.5060133 29.2255972,16.8036023 29.2255972,17.1321251 C29.2255972,18.2453432 28.3230408,19.1478995 27.2098226,19.1478995 C26.4490127,19.1478995 25.8103709,18.7093472 25.4673603,18.0867595 C25.377692,18.1122112 25.2872406,18.1400123 25.1944398,18.1400123 C24.9363987,18.1400123 24.6787492,18.0417296 24.4817923,17.8447726 C24.0882699,17.4512502 24.0882699,16.8133915 24.4817923,16.4194775 C25.9501594,14.9511104 27.9835542,14.108855 30.0600212,14.108855 L31.24098,14.108855 C31.7981764,14.108855 32.2488673,14.5595458 32.2488673,15.1167422 Z M12.2665436,16.1242379 L11.0855849,16.1242379 C10.5283884,16.1242379 10.0776976,15.673547 10.0776976,15.1167422 C10.0776976,14.5595458 10.5283884,14.108855 11.0855849,14.108855 L12.2665436,14.108855 C14.3430106,14.108855 16.3764055,14.9511104 17.8447726,16.4194775 C18.238295,16.8133915 18.238295,17.4508587 17.8447726,17.8447726 C17.6478157,18.0417296 17.3901661,18.1400123 17.1321251,18.1400123 C17.0393243,18.1400123 16.9488728,18.1122112 16.8592046,18.0867595 C16.516194,18.7093472 15.8775521,19.1478995 15.1167422,19.1478995 C14.0035241,19.1478995 13.1009677,18.2453432 13.1009677,17.1321251 C13.1009677,16.8036023 13.1980757,16.5060133 13.3374728,16.2319182 C12.9850646,16.1653521 12.6271746,16.1242379 12.2665436,16.1242379 Z" id="Shape" fill="#6F2538" fill-rule="nonzero" mask="url(#mask-13)"></path>
                    </g>
                </g>
            </g>
        </g>
    </g>
</svg>