<?xml version="1.0" encoding="UTF-8"?>
<svg width="56px" height="56px" viewBox="0 0 56 56" version="1.1" xmlns="http://www.w3.org/2000/svg" xmlns:xlink="http://www.w3.org/1999/xlink">
    <title>Group</title>
    <defs>
        <linearGradient x1="50%" y1="19.2864583%" x2="50%" y2="93.1432292%" id="linearGradient-1">
            <stop stop-color="#FFFDFC" offset="0%"></stop>
            <stop stop-color="#F8E7EC" offset="100%"></stop>
        </linearGradient>
        <polygon id="path-2" points="0 0 56 0 56 56 0 56"></polygon>
        <path d="M28,0 C12.5359401,0 0,12.5359401 0,28 C0,43.4640599 12.5359401,56 28,56 C43.4640599,56 56,43.4640599 56,28 C56,12.5359401 43.4640599,0 28,0 Z" id="path-4"></path>
        <rect id="path-6" x="0" y="0" width="56.1346982" height="56.1346982"></rect>
        <polygon id="path-8" points="0 1.40224577e-15 56 1.40224577e-15 56 56 0 56"></polygon>
        <path d="M28,1.40224577e-15 C12.5359401,1.40224577e-15 0,12.5359401 0,28 C0,43.4640599 12.5359401,56 28,56 C43.4640599,56 56,43.4640599 56,28 C56,12.5359401 43.4640599,1.40224577e-15 28,1.40224577e-15 Z" id="path-10"></path>
        <polygon id="path-12" points="0 0 42.3265649 0 42.3265649 42.3265649 0 42.3265649"></polygon>
    </defs>
    <g id="Page-1" stroke="none" stroke-width="1" fill="none" fill-rule="evenodd">
        <g id="Stack" transform="translate(-173, -190)">
            <g id="Stack-3" transform="translate(0, 180)">
                <g id="Group" transform="translate(173, 10)">
                    <g id="Clipped">
                        <mask id="mask-3" fill="white">
                            <use xlink:href="#path-2"></use>
                        </mask>
                        <g id="Path"></g>
                        <g mask="url(#mask-3)">
                            <mask id="mask-5" fill="white">
                                <use xlink:href="#path-4"></use>
                            </mask>
                            <g id="Path"></g>
                            <g id="Group" mask="url(#mask-5)">
                                <g transform="translate(-0.0673, -0.0673)">
                                    <mask id="mask-7" fill="white">
                                        <use xlink:href="#path-6"></use>
                                    </mask>
                                    <g id="Rectangle" stroke="none" fill="none"></g>
                                    <g id="Clipped" stroke="none" stroke-width="1" fill="none" fill-rule="evenodd" mask="url(#mask-7)">
                                        <g transform="translate(0.0673, 0.0673)">
                                            <mask id="mask-9" fill="white">
                                                <use xlink:href="#path-8"></use>
                                            </mask>
                                            <g id="Path" stroke="none" fill="none"></g>
                                            <g id="Clipped" stroke="none" stroke-width="1" fill="none" fill-rule="evenodd" mask="url(#mask-9)">
                                                <mask id="mask-11" fill="white">
                                                    <use xlink:href="#path-10"></use>
                                                </mask>
                                                <g id="Path"></g>
                                                <polygon id="Path" fill="#B7CBE7" mask="url(#mask-11)" points="0 1.40224577e-15 56 1.40224577e-15 56 56 0 56"></polygon>
                                            </g>
                                        </g>
                                    </g>
                                </g>
                            </g>
                        </g>
                    </g>
                    <g id="Clipped" transform="translate(6.8367, 6.8367)">
                        <mask id="mask-13" fill="white">
                            <use xlink:href="#path-12"></use>
                        </mask>
                        <g id="Path"></g>
                        <path d="M21.1632824,2.3513344 C20.8034346,2.35095374 20.4439783,2.36113447 20.0849136,2.38110419 C19.7258488,2.40146555 19.3675673,2.43200763 19.0100688,2.47273035 C18.6525703,2.51345307 18.2966382,2.56435641 17.9422722,2.62544049 C17.5875147,2.68652456 17.2351066,2.75778936 16.8846562,2.83884316 C16.5345976,2.92028859 16.1864966,3.01152321 15.8415282,3.11293846 C15.4961683,3.21396207 15.1543324,3.32516641 14.8152375,3.44576831 C14.4765341,3.56676174 14.1413548,3.69715272 13.8100912,3.83733289 C13.4788276,3.97712142 13.1518711,4.12669914 12.8288304,4.28528277 C12.5061812,4.44425804 12.1882307,4.61223922 11.874979,4.78922641 C11.5617274,4.9662136 11.2539576,5.15181516 10.9512782,5.34642283 C10.6489903,5.5410304 10.3521844,5.74425244 10.0612519,5.95608885 C9.7703194,6.16753373 9.48565193,6.38759297 9.20764113,6.61548361 C8.92923869,6.84337414 8.65749292,7.07909607 8.39279516,7.32264919 C8.12809761,7.56620241 7.87044806,7.81680374 7.62023827,8.07523636 C7.36963694,8.33327735 7.1268669,8.59875818 6.89153661,8.87089559 C6.65659786,9.143033 6.42909887,9.42182698 6.2098227,9.70688599 C5.99054654,9.99194501 5.77988474,10.2832691 5.57705434,10.5804665 C5.37461548,10.877664 5.18079099,11.180735 4.99558096,11.4888963 C4.81037084,11.7974492 4.63416683,12.1107009 4.46696873,12.4294345 C4.29977063,12.7477765 4.14157854,13.0708172 3.992784,13.3981652 C3.84398946,13.7259048 3.70498411,14.05756 3.57498457,14.3927392 C3.44537677,14.7283102 3.32516641,15.067405 3.21513679,15.4096324 C3.10471553,15.7522515 3.00408346,16.0976115 2.91363202,16.4457124 C2.82318057,16.7938133 2.74251832,17.1442636 2.6720367,17.4970632 C2.60155507,17.8498629 2.54125408,18.2042289 2.49113381,18.5605526 C2.44101354,18.9164849 2.40107401,19.2739834 2.3713151,19.6326565 C2.34155619,19.9909381 2.32236955,20.3500028 2.31336354,20.7094591 C2.30396599,21.0693069 2.30514071,21.4287633 2.3168876,21.7882195 C2.32824294,22.1480674 2.35017056,22.5067405 2.38188737,22.865022 C2.41399561,23.2233037 2.45628459,23.5804106 2.50875429,23.9363427 C2.56161553,24.292275 2.62426587,24.6462494 2.69670529,24.9986575 C2.76953625,25.3510656 2.85254794,25.7007328 2.94534872,26.0484421 C3.0381496,26.3957599 3.14113111,26.7407283 3.25351007,27.0821726 C3.36628067,27.4240085 3.48844882,27.7619287 3.62040616,28.0967165 C3.7523634,28.4311126 3.89371819,28.7619847 4.04486206,29.0885495 C4.1956145,29.4151143 4.35576439,29.7369805 4.52492029,30.0541477 C4.69446773,30.3717066 4.87262964,30.6837836 5.06018909,30.9911619 C5.24735691,31.2981485 5.4431392,31.5996532 5.64753597,31.895676 C5.85232417,32.1916988 6.06494376,32.4814566 6.28617782,32.765341 C6.50741178,33.0488336 6.73647704,33.3260615 6.97337358,33.5966325 C7.21027023,33.8672037 7.45499807,34.1311182 7.70716566,34.387593 C7.95933325,34.6440678 8.21854895,34.8934944 8.48481286,35.1350897 C8.75107678,35.3766852 9.0243889,35.6108407 9.30396596,35.8367735 C9.58393466,36.0627063 9.86977686,36.2808077 10.1622755,36.4906864 C10.4543828,36.7001734 10.7523634,36.9014376 11.0562175,37.0940873 C11.3600716,37.2867371 11.6694076,37.470381 11.9834424,37.6454103 C12.2978688,37.8204397 12.616994,37.9860715 12.9408178,38.1426973 C13.2646417,38.2993232 13.5927728,38.4465515 13.9248196,38.5843822 C14.257258,38.7222129 14.5932203,38.8506461 14.9327068,38.9688986 C15.2725849,39.0875427 15.6152039,39.1963977 15.9609554,39.2954635 C16.3067069,39.3945293 16.6551994,39.4834145 17.0060413,39.5625105 C17.3572747,39.641215 17.7100744,39.7101304 18.0648319,39.768865 C18.4199809,39.8275997 18.7763047,39.8761538 19.1338032,39.914527 C19.4916933,39.9529003 19.8499749,39.981093 20.2094311,39.999105 C20.5684958,40.0167254 20.9279521,40.0241651 21.2878,40.0214242 C21.6476478,40.0186832 22.0067125,40.0057616 22.3657773,39.9822677 C22.724842,39.9591654 23.0827321,39.9254909 23.4398389,39.8816356 C23.7969458,39.8377804 24.1524864,39.7833529 24.5064608,39.7191363 C24.8604351,39.6549197 25.2120602,39.580914 25.5617273,39.4963361 C25.9113946,39.4117581 26.2583207,39.3173911 26.6028976,39.2132349 C26.9470829,39.1090787 27.2881355,38.9951334 27.6256643,38.8710075 C27.9635845,38.7472731 28.2975891,38.6137496 28.627678,38.4708284 C28.9577669,38.3279074 29.2835486,38.1755888 29.6046317,38.0142642 C29.9261062,37.852548 30.2424904,37.6818258 30.5541758,37.5020977 C30.8658612,37.3223695 31.1720646,37.1336353 31.4727862,36.9362868 C31.7735078,36.7393299 32.0683559,36.5333669 32.3577222,36.319181 C32.6466969,36.1049953 32.9290149,35.8825866 33.2054595,35.6523466 C33.4819041,35.4221066 33.7513006,35.1840354 34.0136488,34.9381328 C34.2763886,34.6922303 34.5316887,34.438888 34.7799407,34.1784975 C35.0281926,33.9181071 35.2686133,33.6506685 35.5012026,33.3765733 C35.7341836,33.1024781 35.9589416,32.8217263 36.1754769,32.5347094 C36.3924036,32.247301 36.600716,31.9544107 36.8008055,31.6552554 C37.0005035,31.3561 37.1919785,31.0518544 37.3744476,30.7417352 C37.5569167,30.4316161 37.7303799,30.1167981 37.8948369,29.7968898 C38.0592941,29.4769816 38.2143536,29.1523746 38.3600157,28.8234603 C38.5060693,28.4949376 38.6423337,28.1621077 38.7692007,27.8253622 C38.8960676,27.4886166 39.0127538,27.1487387 39.1200425,26.8053364 C39.2277228,26.4619343 39.3248308,26.1157912 39.4125413,25.7669072 C39.4998601,25.4180231 39.57739,25.0667897 39.6447391,24.7135985 C39.7120882,24.3600157 39.7692566,24.0052581 39.8162443,23.6485428 C39.8632321,23.2918275 39.9000392,22.9343291 39.9266656,22.5752644 C39.9529003,22.2165911 39.9693461,21.8575264 39.9752196,21.4976786 C39.981093,21.1382223 39.9767858,20.7783744 39.9622979,20.4193097 C39.9474185,20.0598535 39.9223583,19.7011802 39.8875091,19.3428987 C39.8522683,18.9850086 39.8068468,18.6282934 39.7508531,18.2727526 C39.6952509,17.9176036 39.629468,17.5640208 39.5535046,17.2123959 C39.4779325,16.8607708 39.3917883,16.5114952 39.295855,16.1649606 C39.1999217,15.8180343 39.0941992,15.4746322 38.9786876,15.133971 C38.8631762,14.7933098 38.7378755,14.4561728 38.6027857,14.1225597 C38.4680874,13.7893383 38.3236001,13.4596409 38.1697153,13.1346423 C38.016222,12.8092521 37.8529396,12.4889523 37.6810427,12.1729597 C37.5087543,11.8573586 37.3278514,11.5464563 37.1379426,11.241036 C36.9480338,10.9356156 36.749119,10.6356771 36.5419813,10.3416122 C36.3352352,10.0475471 36.1194831,9.7593556 35.8958997,9.47782064 C35.6723164,9.19589414 35.4409017,8.92101586 35.2016558,8.6524025 C34.9620182,8.38378925 34.7153325,8.12222411 34.4608156,7.86809872 C34.0253958,7.43228727 33.5696146,7.01918671 33.0934721,6.62840521 C32.6173295,6.23762371 32.1231751,5.87072773 31.6110085,5.52850033 C31.0988421,5.1858813 30.5714046,4.86949712 30.0283045,4.57895625 C29.4852044,4.28841528 28.9291827,4.02489234 28.3598479,3.78917042 C27.7909046,3.55305695 27.2117805,3.34513623 26.6224759,3.16619125 C26.0331711,2.98685462 25.4364267,2.83688536 24.8322425,2.71628347 C24.22845,2.59568158 23.619567,2.50483859 23.0067685,2.44375452 C22.3939699,2.38306209 21.7792135,2.35212846 21.1632824,2.3513344 M21.1632824,0 C21.5098171,0 21.8559601,0.00861447088 22.2017117,0.0254516727 C22.5474632,0.0426805142 22.8928232,0.0681322871 23.2377915,0.101806791 C23.5823684,0.135872934 23.9261621,0.178161909 24.2683895,0.229065254 C24.6110085,0.2799687 24.9524528,0.339094876 25.2919394,0.406835624 C25.6318174,0.474184732 25.9697377,0.55014821 26.3057,0.63433462 C26.6416625,0.71852103 26.9752755,0.810930271 27.3065391,0.911170803 C27.6381943,1.01180288 27.966717,1.12026624 28.2928903,1.23695253 C28.6190636,1.35363873 28.9421043,1.47854785 29.2620127,1.61089663 C29.5819209,1.74363705 29.8986966,1.88381722 30.2115567,2.03182858 C30.5248084,2.17984004 30.8341444,2.3356827 31.1395649,2.4989652 C31.4449851,2.66224761 31.7464899,2.83296976 32.0432958,3.01074003 C32.3404933,3.18890194 32.6329921,3.37411196 32.9207921,3.56676174 C33.2089836,3.75901997 33.4920849,3.95832632 33.7700957,4.16468087 C34.0484981,4.37103543 34.3214186,4.58404657 34.5892488,4.80371427 C34.8566874,5.02338197 35.1190356,5.24970635 35.3755104,5.48229566 C35.6323768,5.71488507 35.8829781,5.95373942 36.1280975,6.19846735 C36.3728254,6.44358673 36.6116798,6.69418806 36.8442692,6.95105443 C37.0768585,7.20752925 37.3031829,7.46987747 37.5228506,7.7373161 C37.7425183,8.00514628 37.9555294,8.27806676 38.161884,8.55646921 C38.3682385,8.83448001 38.5675449,9.11758122 38.7598031,9.40577276 C38.9524529,9.69357275 39.1376629,9.98607151 39.3154333,10.2832691 C39.4935951,10.580075 39.6643173,10.8815797 39.8275997,11.187 C39.9908822,11.4924205 40.1467248,11.8017564 40.2947363,12.1150081 C40.4427476,12.4278682 40.5829278,12.744644 40.7156682,13.0645522 C40.848017,13.3844605 40.9729261,13.7075013 41.0896123,14.0336746 C41.2062986,14.3598478 41.314762,14.6883705 41.4153941,15.0200258 C41.5156346,15.3512893 41.6080438,15.6849024 41.6922302,16.0208648 C41.7764166,16.3568272 41.8523801,16.6947474 41.9197292,17.0346255 C41.98747,17.374112 42.0465962,17.7155563 42.0974996,18.0581754 C42.148403,18.4004028 42.1906919,18.7441965 42.2247581,19.0887733 C42.2584326,19.4337417 42.2838843,19.7791016 42.3011132,20.1248532 C42.3179504,20.4706047 42.3265649,20.8167478 42.3265649,21.1632824 C42.3265649,21.5098171 42.3179504,21.8559601 42.3011132,22.2017117 C42.2838843,22.5474632 42.2584326,22.8928232 42.2247581,23.2377915 C42.1906919,23.5823684 42.148403,23.9261621 42.0974996,24.2683895 C42.0465962,24.6110085 41.98747,24.9524528 41.9197292,25.2919394 C41.8523801,25.6318174 41.7764166,25.9697377 41.6922302,26.3057 C41.6080438,26.6416625 41.5156346,26.9752755 41.4153941,27.3065391 C41.314762,27.6381943 41.2062986,27.966717 41.0896123,28.2928903 C40.9729261,28.6190636 40.848017,28.9421043 40.7156682,29.2620127 C40.5829278,29.5819209 40.4427476,29.8986966 40.2947363,30.2115567 C40.1467248,30.5248084 39.9908822,30.8341444 39.8275997,31.1395649 C39.6643173,31.4449851 39.4935951,31.7464899 39.3154333,32.0432958 C39.1376629,32.3404933 38.9524529,32.6329921 38.7598031,32.9207921 C38.5675449,33.2089836 38.3682385,33.4920849 38.161884,33.7700957 C37.9555294,34.0484981 37.7425183,34.3214186 37.5228506,34.5892488 C37.3031829,34.8566874 37.0768585,35.1190356 36.8442692,35.3755104 C36.6116798,35.6323768 36.3728254,35.8829781 36.1280975,36.1280975 C35.8829781,36.3728254 35.6323768,36.6116798 35.3755104,36.8442692 C35.1190356,37.0768585 34.8566874,37.3031829 34.5892488,37.5228506 C34.3214186,37.7425183 34.0484981,37.9555294 33.7700957,38.161884 C33.4920849,38.3682385 33.2089836,38.5675449 32.9207921,38.7598031 C32.6329921,38.9524529 32.3404933,39.1376629 32.0432958,39.3154333 C31.7464899,39.4935951 31.4449851,39.6643173 31.1395649,39.8275997 C30.8341444,39.9908822 30.5248084,40.1467248 30.2115567,40.2947363 C29.8986966,40.4427476 29.5819209,40.5829278 29.2620127,40.7156682 C28.9421043,40.848017 28.6190636,40.9729261 28.2928903,41.0896123 C27.966717,41.2062986 27.6381943,41.314762 27.3065391,41.4153941 C26.9752755,41.5156346 26.6416625,41.6080438 26.3057,41.6922302 C25.9697377,41.7764166 25.6318174,41.8523801 25.2919394,41.9197292 C24.9524528,41.98747 24.6110085,42.0465962 24.2683895,42.0974996 C23.9261621,42.148403 23.5823684,42.1906919 23.2377915,42.2247581 C22.8928232,42.2584326 22.5474632,42.2838843 22.2017117,42.3011132 C21.8559601,42.3179504 21.5098171,42.3265649 21.1632824,42.3265649 C20.8167478,42.3265649 20.4706047,42.3179504 20.1248532,42.3011132 C19.7791016,42.2838843 19.4337417,42.2584326 19.0887733,42.2247581 C18.7441965,42.1906919 18.4004028,42.148403 18.0581754,42.0974996 C17.7155563,42.0465962 17.374112,41.98747 17.0346255,41.9197292 C16.6947474,41.8523801 16.3568272,41.7764166 16.0208648,41.6922302 C15.6849024,41.6080438 15.3512893,41.5156346 15.0200258,41.4153941 C14.6883705,41.314762 14.3598478,41.2062986 14.0336746,41.0896123 C13.7075013,40.9729261 13.3844605,40.848017 13.0645522,40.7156682 C12.744644,40.5829278 12.4278682,40.4427476 12.1146166,40.2947363 C11.8017564,40.1467248 11.4924205,39.9908822 11.187,39.8275997 C10.8815797,39.6643173 10.580075,39.4935951 10.2832691,39.3154333 C9.98607151,39.1376629 9.69357275,38.9524529 9.40577276,38.7598031 C9.11758122,38.5675449 8.83448001,38.3682385 8.55646921,38.161884 C8.27806676,37.9555294 8.00514628,37.7425183 7.7373161,37.5228506 C7.46987747,37.3031829 7.20752925,37.0768585 6.95105443,36.8442692 C6.69418806,36.6116798 6.44358673,36.3728254 6.19846735,36.1280975 C5.95373942,35.8829781 5.71488507,35.6323768 5.48229566,35.3755104 C5.24970635,35.1190356 5.02338197,34.8566874 4.80371427,34.5892488 C4.58404657,34.3214186 4.37103543,34.0484981 4.16468087,33.7700957 C3.95832632,33.4920849 3.75901997,33.2089836 3.56676174,32.9207921 C3.37411196,32.6329921 3.18890194,32.3404933 3.01074003,32.0432958 C2.83296976,31.7464899 2.66224761,31.4449851 2.4989652,31.1395649 C2.3356827,30.8341444 2.17984004,30.5248084 2.03182858,30.2115567 C1.88381722,29.8986966 1.74363705,29.5819209 1.61089663,29.2620127 C1.47854785,28.9421043 1.35363873,28.6190636 1.23695253,28.2928903 C1.12026624,27.966717 1.01180288,27.6381943 0.911170803,27.3065391 C0.810930271,26.9752755 0.71852103,26.6416625 0.63433462,26.3057 C0.55014821,25.9697377 0.474184732,25.6318174 0.406835624,25.2919394 C0.339094876,24.9524528 0.2799687,24.6110085 0.229065254,24.2683895 C0.178161909,23.9261621 0.135872934,23.5823684 0.101806791,23.2377915 C0.0681322871,22.8928232 0.0426805142,22.5474632 0.0254516727,22.2017117 C0.00861447088,21.8559601 0,21.5098171 0,21.1632824 C0,20.8171393 0.00939754992,20.4709963 0.0266263915,20.1252447 C0.043855233,19.7794932 0.0696984452,19.4341332 0.104156128,19.0895564 C0.138222272,18.7449796 0.180902886,18.4015775 0.232197771,18.0589584 C0.283101217,17.716731 0.342619033,17.3756783 0.41035968,17.0361918 C0.478491967,16.6967052 0.554455446,16.358785 0.639033395,16.0232142 C0.723219805,15.6872518 0.815629046,15.3536388 0.916652657,15.0223751 C1.01728483,14.6911115 1.12613973,14.3625888 1.24282603,14.0368071 C1.35990376,13.7106338 1.48442135,13.3879846 1.61716167,13.0680763 C1.74990208,12.748168 1.89047379,12.4317838 2.03848525,12.1189238 C2.18688816,11.8060637 2.34233937,11.4967276 2.50601331,11.1916989 C2.66929572,10.8862784 2.84001788,10.5851653 3.01817978,10.2883594 C3.19634169,9.99155337 3.38155171,9.6990546 3.57380995,9.41125471 C3.76645972,9.12345472 3.96576607,8.8403535 4.17212063,8.5623427 C4.37847519,8.2843318 4.59148632,8.01141131 4.81115402,7.74358114 C5.03082173,7.4761425 5.25675446,7.21418583 5.48934387,6.95731946 C5.72193319,6.70084464 5.96078763,6.4502433 6.20551547,6.20551547 C6.4502433,5.96078763 6.70084464,5.72193319 6.95731946,5.48934387 C7.21418583,5.25675446 7.4761425,5.03082173 7.74358114,4.81115402 C8.01141131,4.59148632 8.2843318,4.37847519 8.5623427,4.17212063 C8.8403535,3.96576607 9.12345472,3.76645972 9.41125471,3.57380995 C9.6990546,3.38155171 9.99155337,3.19634169 10.2883594,3.01817978 C10.5851653,2.84001788 10.8862784,2.66929572 11.1916989,2.50601331 C11.4967276,2.34233937 11.8060637,2.18688816 12.1189238,2.03848525 C12.4317838,1.89047379 12.748168,1.74990208 13.0680763,1.61716167 C13.3879846,1.48442135 13.7106338,1.35990376 14.0368071,1.24282603 C14.3625888,1.12613973 14.6911115,1.01728483 15.0223751,0.916652657 C15.3536388,0.815629046 15.6872518,0.723219805 16.0232142,0.639033395 C16.358785,0.554455446 16.6967052,0.478491967 17.0361918,0.41035968 C17.3756783,0.342619033 17.716731,0.283101217 18.0589584,0.232197771 C18.4015775,0.180902886 18.7449796,0.138222272 19.0895564,0.104156128 C19.4341332,0.0696984452 19.7794932,0.043855233 20.1252447,0.0266263915 C20.4709963,0.00939754992 20.8171393,0 21.1632824,0 Z" id="Shape" fill="#27466F" fill-rule="nonzero" mask="url(#mask-13)"></path>
                    </g>
                    <path d="M23.2969178,23.2969178 C23.2969178,23.374056 23.2933937,23.4508028 23.2855625,23.5275493 C23.2781227,23.6042961 23.2667674,23.6802596 23.2518879,23.7558315 C23.2370084,23.8314034 23.2182133,23.9058007 23.1958942,23.9798064 C23.1735749,24.0534206 23.1473402,24.12586 23.1179728,24.1967333 C23.0886054,24.267998 23.055714,24.3376965 23.0192985,24.4054372 C22.9832746,24.4735693 22.9437266,24.5393522 22.9006544,24.6035689 C22.8579739,24.6673938 22.8121609,24.7292611 22.7632153,24.7887789 C22.7142697,24.8482967 22.6625832,24.9054651 22.6081558,24.9598926 C22.5537283,25.0143201 22.4969513,25.0660066 22.4374335,25.1149522 C22.3779157,25.1635062 22.3160486,25.2093192 22.251832,25.2523914 C22.1880069,25.2950719 22.1218325,25.3346199 22.0540919,25.3710355 C21.9859596,25.4070593 21.9166527,25.4399508 21.8453879,25.4697096 C21.7741232,25.499077 21.7016838,25.5249203 21.6280696,25.5472395 C21.5544555,25.5695586 21.4796666,25.5883537 21.4044862,25.6032332 C21.3289143,25.6185043 21.2525592,25.629468 21.176204,25.6372994 C21.0994574,25.644739 21.0227107,25.6486547 20.9455725,25.6486547 C20.8684343,25.6486547 20.7916877,25.644739 20.714941,25.6372994 C20.6385859,25.629468 20.5622308,25.6185043 20.4866588,25.6032332 C20.4114784,25.5883537 20.3366896,25.5695586 20.2630754,25.5472395 C20.1894613,25.5249203 20.1170219,25.499077 20.0457572,25.4697096 C19.9744924,25.4399508 19.9051855,25.4070593 19.8370532,25.3710355 C19.7693125,25.3346199 19.7031381,25.2950719 19.6393131,25.2523914 C19.5750965,25.2093192 19.5132293,25.1635062 19.4537115,25.1149522 C19.3941937,25.0660066 19.3374168,25.0143201 19.2829893,24.9598926 C19.2285619,24.9054651 19.1768753,24.8482967 19.1279298,24.7887789 C19.0789841,24.7292611 19.0331711,24.6673938 18.9904906,24.6035689 C18.9474184,24.5393522 18.9078704,24.4735693 18.8718465,24.4054372 C18.835431,24.3376965 18.8025396,24.267998 18.7731722,24.1967333 C18.7438049,24.12586 18.7175701,24.0534206 18.6952509,23.9798064 C18.6729317,23.9058007 18.6541366,23.8314034 18.6392572,23.7558315 C18.6243777,23.6802596 18.6130223,23.6042961 18.6055826,23.5275493 C18.5977513,23.4508028 18.5942272,23.374056 18.5942272,23.2969178 C18.5942272,23.2201711 18.5977513,23.1430329 18.6055826,23.0666778 C18.6130223,22.9899312 18.6243777,22.9139677 18.6392572,22.8383957 C18.6541366,22.7628237 18.6729317,22.6880349 18.6952509,22.6144208 C18.7175701,22.5408066 18.7438049,22.4683672 18.7731722,22.3971024 C18.8025396,22.3258376 18.835431,22.2565307 18.8718465,22.1883986 C18.9078704,22.1206578 18.9474184,22.0544834 18.9904906,21.9906584 C19.0331711,21.9264418 19.0789841,21.8649662 19.1279298,21.8054483 C19.1768753,21.7459305 19.2285619,21.688762 19.2829893,21.6343346 C19.3374168,21.5799071 19.3941937,21.5282206 19.4537115,21.4792751 C19.5132293,21.4303295 19.5750965,21.3845164 19.6393131,21.3418359 C19.7031381,21.2991554 19.7693125,21.2596073 19.8370532,21.2231918 C19.9051855,21.1867763 19.9744924,21.1538849 20.0457572,21.1245175 C20.1170219,21.0951502 20.1894613,21.0693069 20.2630754,21.0469878 C20.3366896,21.024277 20.4114784,21.0058734 20.4866588,20.9906025 C20.5622308,20.975723 20.6385859,20.9643676 20.714941,20.9569279 C20.7916877,20.9494881 20.8684343,20.9455725 20.9455725,20.9455725 C21.0227107,20.9455725 21.0994574,20.9494881 21.176204,20.9569279 C21.2525592,20.9643676 21.3289143,20.975723 21.4044862,20.9906025 C21.4796666,21.0058734 21.5544555,21.024277 21.6280696,21.0469878 C21.7016838,21.0693069 21.7741232,21.0951502 21.8453879,21.1245175 C21.9166527,21.1538849 21.9859596,21.1867763 22.0540919,21.2231918 C22.1218325,21.2596073 22.1880069,21.2991554 22.251832,21.3418359 C22.3160486,21.3845164 22.3779157,21.4303295 22.4374335,21.4792751 C22.4969513,21.5282206 22.5537283,21.5799071 22.6081558,21.6343346 C22.6625832,21.688762 22.7142697,21.7459305 22.7632153,21.8054483 C22.8121609,21.8649662 22.8579739,21.9264418 22.9006544,21.9906584 C22.9437266,22.0544834 22.9832746,22.1206578 23.0192985,22.1883986 C23.055714,22.2565307 23.0886054,22.3258376 23.1179728,22.3971024 C23.1473402,22.4683672 23.1735749,22.5408066 23.1958942,22.6144208 C23.2182133,22.6880349 23.2370084,22.7628237 23.2518879,22.8383957 C23.2667674,22.9139677 23.2781227,22.9899312 23.2855625,23.0666778 C23.2933937,23.1430329 23.2969178,23.2201711 23.2969178,23.2969178 Z" id="Path" fill="#27466F"></path>
                    <path d="M37.4057728,23.2969178 C37.4057728,23.374056 37.4022487,23.4508028 37.3944174,23.5275493 C37.3869777,23.6042961 37.3756223,23.6802596 37.3607428,23.7558315 C37.3458634,23.8314034 37.3270683,23.9058007 37.3047491,23.9798064 C37.2824299,24.0534206 37.2561951,24.12586 37.2268278,24.1967333 C37.1974604,24.267998 37.164569,24.3376965 37.1281535,24.4054372 C37.0921296,24.4735693 37.0525816,24.5393522 37.0095094,24.6035689 C36.9668289,24.6673938 36.9210159,24.7292611 36.8720702,24.7887789 C36.8231247,24.8482967 36.7714381,24.9054651 36.7170107,24.9598926 C36.6625832,25.0143201 36.6058063,25.0660066 36.5462885,25.1149522 C36.4867707,25.1635062 36.4249035,25.2093192 36.3606869,25.2523914 C36.2968619,25.2950719 36.2306875,25.3346199 36.1629468,25.3710355 C36.0948145,25.4070593 36.0255076,25.4399508 35.9542428,25.4697096 C35.8829781,25.499077 35.8105387,25.5249203 35.7369246,25.5472395 C35.6633104,25.5695586 35.5885216,25.5883537 35.5133412,25.6032332 C35.4377692,25.6185043 35.3614141,25.629468 35.285059,25.6372994 C35.2083123,25.644739 35.1315657,25.6486547 35.0544275,25.6486547 C34.9772893,25.6486547 34.9005426,25.644739 34.823796,25.6372994 C34.7474408,25.629468 34.6710857,25.6185043 34.5955138,25.6032332 C34.5203334,25.5883537 34.4455445,25.5695586 34.3719304,25.5472395 C34.2983162,25.5249203 34.2258768,25.499077 34.1546121,25.4697096 C34.0833473,25.4399508 34.0140404,25.4070593 33.9459081,25.3710355 C33.8781675,25.3346199 33.8119931,25.2950719 33.748168,25.2523914 C33.6839514,25.2093192 33.6220843,25.1635062 33.5625665,25.1149522 C33.5030487,25.0660066 33.4462717,25.0143201 33.3918442,24.9598926 C33.3374168,24.9054651 33.2857303,24.8482967 33.2367847,24.7887789 C33.1878391,24.7292611 33.1420261,24.6673938 33.0993456,24.6035689 C33.0562734,24.5393522 33.0167254,24.4735693 32.9807015,24.4054372 C32.944286,24.3376965 32.9113946,24.267998 32.8820272,24.1967333 C32.8526598,24.12586 32.8264251,24.0534206 32.8041058,23.9798064 C32.7817867,23.9058007 32.7629916,23.8314034 32.7481121,23.7558315 C32.7332326,23.6802596 32.7218773,23.6042961 32.7144375,23.5275493 C32.7066063,23.4508028 32.7030822,23.374056 32.7030822,23.2969178 C32.7030822,23.2201711 32.7066063,23.1430329 32.7144375,23.0666778 C32.7218773,22.9899312 32.7332326,22.9139677 32.7481121,22.8383957 C32.7629916,22.7628237 32.7817867,22.6880349 32.8041058,22.6144208 C32.8264251,22.5408066 32.8526598,22.4683672 32.8820272,22.3971024 C32.9113946,22.3258376 32.944286,22.2565307 32.9807015,22.1883986 C33.0167254,22.1206578 33.0562734,22.0544834 33.0993456,21.9906584 C33.1420261,21.9264418 33.1878391,21.8649662 33.2367847,21.8054483 C33.2857303,21.7459305 33.3374168,21.688762 33.3918442,21.6343346 C33.4462717,21.5799071 33.5030487,21.5282206 33.5625665,21.4792751 C33.6220843,21.4303295 33.6839514,21.3845164 33.748168,21.3418359 C33.8119931,21.2991554 33.8781675,21.2596073 33.9459081,21.2231918 C34.0140404,21.1867763 34.0833473,21.1538849 34.1546121,21.1245175 C34.2258768,21.0951502 34.2983162,21.0693069 34.3719304,21.0469878 C34.4455445,21.024277 34.5203334,21.0058734 34.5955138,20.9906025 C34.6710857,20.975723 34.7474408,20.9643676 34.823796,20.9569279 C34.9005426,20.9494881 34.9772893,20.9455725 35.0544275,20.9455725 C35.1315657,20.9455725 35.2083123,20.9494881 35.285059,20.9569279 C35.3614141,20.9643676 35.4377692,20.975723 35.5133412,20.9906025 C35.5885216,21.0058734 35.6633104,21.024277 35.7369246,21.0469878 C35.8105387,21.0693069 35.8829781,21.0951502 35.9542428,21.1245175 C36.0255076,21.1538849 36.0948145,21.1867763 36.1629468,21.2231918 C36.2306875,21.2596073 36.2968619,21.2991554 36.3606869,21.3418359 C36.4249035,21.3845164 36.4867707,21.4303295 36.5462885,21.4792751 C36.6058063,21.5282206 36.6625832,21.5799071 36.7170107,21.6343346 C36.7714381,21.688762 36.8231247,21.7459305 36.8720702,21.8054483 C36.9210159,21.8649662 36.9668289,21.9264418 37.0095094,21.9906584 C37.0525816,22.0544834 37.0921296,22.1206578 37.1281535,22.1883986 C37.164569,22.2565307 37.1974604,22.3258376 37.2268278,22.3971024 C37.2561951,22.4683672 37.2824299,22.5408066 37.3047491,22.6144208 C37.3270683,22.6880349 37.3458634,22.7628237 37.3607428,22.8383957 C37.3756223,22.9139677 37.3869777,22.9899312 37.3944174,23.0666778 C37.4022487,23.1430329 37.4057728,23.2201711 37.4057728,23.2969178 Z" id="Path" fill="#27466F"></path>
                    <path d="M38.807574,36.0012306 C38.862393,36.0556581 38.910947,36.1151759 38.9540192,36.1793925 C38.9966997,36.2436091 39.0331152,36.3113497 39.0624825,36.3826145 C39.0922414,36.4538793 39.1145606,36.5274934 39.1294401,36.6030654 C39.1443195,36.6790289 39.1521508,36.755384 39.1521508,36.8325222 C39.1521508,36.9096604 39.1443195,36.9864072 39.1294401,37.0619791 C39.1145606,37.137551 39.0922414,37.2111652 39.0624825,37.2824299 C39.0331152,37.3536947 38.9966997,37.4214353 38.9540192,37.4856519 C38.910947,37.5498685 38.862393,37.6093863 38.807574,37.6638138 C38.7531466,37.7186329 38.6936287,37.7671869 38.629412,37.810259 C38.5651956,37.8529396 38.4974548,37.889355 38.4261901,37.9187224 C38.3549253,37.9484813 38.2813112,37.9708005 38.2057392,37.98568 C38.1297757,38.0009509 38.0534206,38.0083907 37.9762824,38.0083907 C37.8991441,38.0083907 37.8227891,38.0009509 37.7468255,37.98568 C37.6712536,37.9708005 37.5976395,37.9484813 37.5263746,37.9187224 C37.4551099,37.889355 37.3873693,37.8529396 37.3231526,37.810259 C37.2589361,37.7671869 37.1994183,37.7186329 37.1449908,37.6638138 C36.9950215,37.5146278 36.8419198,37.3689657 36.6849024,37.2268278 C36.527885,37.0850813 36.367735,36.9468591 36.2040611,36.812944 C36.0403871,36.6786374 35.873189,36.5486379 35.70325,36.4229457 C35.533311,36.2968619 35.3602394,36.1754769 35.1840354,36.0580075 C35.0082228,35.9405381 34.8292778,35.827376 34.6475919,35.7189125 C34.4662974,35.6100576 34.2818706,35.5059014 34.0954858,35.4064441 C33.9087095,35.3065951 33.7195838,35.2118364 33.5281088,35.121385 C33.3370253,35.0309336 33.1435923,34.9455725 32.94781,34.8645187 C32.7524193,34.7838563 32.5550707,34.7078928 32.3557644,34.636628 C32.156458,34.5653633 31.9555854,34.499189 31.7531465,34.4377132 C31.5507076,34.3762376 31.3467025,34.3198523 31.1415227,34.2685573 C30.9363428,34.2172625 30.7295967,34.1710578 30.5220674,34.1299435 C30.3145383,34.0884376 30.1062259,34.0524137 29.8971304,34.0214801 C29.6876434,33.9905465 29.4777648,33.9647032 29.267103,33.9439503 C29.0564412,33.9231974 28.845388,33.9075348 28.6343346,33.8973541 C28.4228897,33.8867818 28.2114449,33.8816915 28,33.8816915 C27.7881636,33.8816915 27.5767187,33.8867818 27.3652738,33.8973541 C27.1542205,33.9075348 26.9431672,33.9231974 26.7325055,33.9439503 C26.5218437,33.9647032 26.3119651,33.9905465 26.1028696,34.0214801 C25.8933826,34.0524137 25.6850702,34.0884376 25.477541,34.1299435 C25.2700117,34.1710578 25.0632656,34.2172625 24.8580858,34.2685573 C24.652906,34.3198523 24.4489008,34.3762376 24.246462,34.4377132 C24.044023,34.499189 23.8431504,34.5653633 23.6438441,34.636628 C23.4445377,34.7078928 23.2471892,34.7838563 23.0517984,34.8645187 C22.8560161,34.9455725 22.6625832,35.0309336 22.4714997,35.121385 C22.2800246,35.2118364 22.0908989,35.3065951 21.9041226,35.4064441 C21.7177379,35.5059014 21.5333109,35.6100576 21.3520166,35.7189125 C21.1703306,35.827376 20.9913856,35.9405381 20.8155731,36.0580075 C20.639369,36.1754769 20.4662975,36.2968619 20.2963585,36.4229457 C20.1264194,36.5486379 19.9596129,36.6786374 19.7955474,36.812944 C19.6318733,36.9468591 19.4717234,37.0850813 19.3147061,37.2268278 C19.1576886,37.3689657 19.0045869,37.5146278 18.8546177,37.6638138 C18.8001902,37.7186329 18.7406723,37.7671869 18.6764558,37.810259 C18.6122392,37.8529396 18.5444985,37.889355 18.4732338,37.9187224 C18.401969,37.9484813 18.3283549,37.9708005 18.2527829,37.98568 C18.1768194,38.0009509 18.1004643,38.0083907 18.023326,38.0083907 C17.9461878,38.0083907 17.8698327,38.0009509 17.7938692,37.98568 C17.7182973,37.9708005 17.6446831,37.9484813 17.5734184,37.9187224 C17.5021537,37.889355 17.4344129,37.8529396 17.3701963,37.810259 C17.3059797,37.7671869 17.2464619,37.7186329 17.1920345,37.6638138 C17.1372154,37.6093863 17.0886615,37.5498685 17.0455893,37.4856519 C17.0029088,37.4214353 16.9664933,37.3536947 16.9371259,37.2824299 C16.9077586,37.2111652 16.8854394,37.137551 16.8701684,37.0619791 C16.8552889,36.9864072 16.8474577,36.9096604 16.8474577,36.8325222 C16.8474577,36.755384 16.8552889,36.6790289 16.8701684,36.6030654 C16.8854394,36.5274934 16.9077586,36.4538793 16.9371259,36.3826145 C16.9664933,36.3113497 17.0029088,36.2436091 17.0455893,36.1793925 C17.0886615,36.1151759 17.1372154,36.0556581 17.1920345,36.0012306 C17.3690216,35.824635 17.550316,35.6523466 17.735526,35.484757 C17.9211277,35.3167758 18.110645,35.1538849 18.3040779,34.9953012 C18.4975108,34.8367176 18.6948593,34.6832243 18.8957319,34.5344297 C19.0966046,34.3856352 19.3013928,34.2419309 19.5093136,34.1029255 C19.7172345,33.9643117 19.9286793,33.8307882 20.1432567,33.702355 C20.3578341,33.5739218 20.575544,33.4509705 20.7959948,33.3331096 C21.0168373,33.2152487 21.2400291,33.1032611 21.4659618,32.996364 C21.6922862,32.8894669 21.9209599,32.7884432 22.151983,32.6929015 C22.3830061,32.5973597 22.6163786,32.5072999 22.8517089,32.4231135 C23.0874308,32.3389271 23.3247189,32.2606142 23.5639649,32.1881747 C23.8032108,32.1157353 24.0444146,32.0491693 24.2867931,31.9884768 C24.5295631,31.9277843 24.7735079,31.8733568 25.0186272,31.8244113 C25.2641383,31.7758573 25.5104323,31.7331768 25.7579012,31.6963696 C26.0049784,31.6599542 26.2532304,31.6290205 26.5022655,31.6047436 C26.7509089,31.580075 27.0003357,31.562063 27.2501538,31.5495329 C27.4999721,31.5373944 27.7497902,31.5311293 28,31.5311293 C28.2498183,31.5311293 28.4996364,31.5373944 28.7494546,31.5495329 C28.9992728,31.562063 29.2486994,31.580075 29.4977345,31.6047436 C29.746378,31.6290205 29.99463,31.6599542 30.2417072,31.6963696 C30.489176,31.7331768 30.7354701,31.7758573 30.9809811,31.8244113 C31.2261006,31.8733568 31.4700454,31.9277843 31.7128153,31.9884768 C31.9551938,32.0491693 32.1963976,32.1157353 32.4356436,32.1881747 C32.6748895,32.2606142 32.9121776,32.3389271 33.1478996,32.4231135 C33.3832298,32.5072999 33.6166023,32.5973597 33.8476255,32.6929015 C34.0786485,32.7884432 34.3073223,32.8894669 34.5336466,32.996364 C34.7595794,33.1032611 34.9831627,33.2152487 35.2036136,33.3331096 C35.4240644,33.4509705 35.6417743,33.5739218 35.8563517,33.702355 C36.0709291,33.8307882 36.282374,33.9643117 36.4902948,34.1029255 C36.6982156,34.2419309 36.9030038,34.3856352 37.1038764,34.5344297 C37.3047491,34.6832243 37.5020977,34.8367176 37.6955305,34.9953012 C37.8889635,35.1538849 38.0784808,35.3167758 38.2640823,35.484757 C38.4492924,35.6523466 38.6305868,35.824635 38.807574,36.0012306 Z" id="Path" fill="#27466F"></path>
                </g>
            </g>
        </g>
    </g>
</svg>