<?xml version="1.0" encoding="UTF-8"?>
<svg width="57px" height="56px" viewBox="0 0 57 56" version="1.1" xmlns="http://www.w3.org/2000/svg" xmlns:xlink="http://www.w3.org/1999/xlink">
    <title>Group</title>
    <defs>
        <linearGradient x1="50%" y1="19.2864583%" x2="50%" y2="93.1432292%" id="linearGradient-1">
            <stop stop-color="#FFFDFC" offset="0%"></stop>
            <stop stop-color="#F8E7EC" offset="100%"></stop>
        </linearGradient>
        <polygon id="path-2" points="0 0 56 0 56 56 0 56"></polygon>
        <path d="M28,0 C12.5359401,0 0,12.5359401 0,28 C0,43.4640599 12.5359401,56 28,56 C43.4640599,56 56,43.4640599 56,28 C56,12.5359401 43.4640599,0 28,0 Z" id="path-4"></path>
        <rect id="path-6" x="0" y="0" width="56.1346982" height="56.1346982"></rect>
        <polygon id="path-8" points="0 0 56 0 56 56 0 56"></polygon>
        <path d="M28,0 C12.5359401,0 0,12.5359401 0,28 C0,43.4640599 12.5359401,56 28,56 C43.4640599,56 56,43.4640599 56,28 C56,12.5359401 43.4640599,0 28,0 Z" id="path-10"></path>
        <polygon id="path-12" points="0 0 42.3265649 0 42.3265649 42.3265649 0 42.3265649"></polygon>
    </defs>
    <g id="Page-1" stroke="none" stroke-width="1" fill="none" fill-rule="evenodd">
        <g id="Stack" transform="translate(-98, -190)">
            <g id="Stack-3" transform="translate(0, 180)">
                <g id="Group" transform="translate(98.5, 10)">
                    <g id="Clipped">
                        <mask id="mask-3" fill="white">
                            <use xlink:href="#path-2"></use>
                        </mask>
                        <g id="Path"></g>
                        <g mask="url(#mask-3)">
                            <mask id="mask-5" fill="white">
                                <use xlink:href="#path-4"></use>
                            </mask>
                            <g id="Path"></g>
                            <g id="Group" mask="url(#mask-5)">
                                <g transform="translate(-0.0673, -0.0673)">
                                    <mask id="mask-7" fill="white">
                                        <use xlink:href="#path-6"></use>
                                    </mask>
                                    <g id="Rectangle" stroke="none" fill="none"></g>
                                    <g id="Clipped" stroke="none" stroke-width="1" fill="none" fill-rule="evenodd" mask="url(#mask-7)">
                                        <g transform="translate(0.0673, 0.0673)">
                                            <mask id="mask-9" fill="white">
                                                <use xlink:href="#path-8"></use>
                                            </mask>
                                            <g id="Path" stroke="none" fill="none"></g>
                                            <g id="Clipped" stroke="none" stroke-width="1" fill="none" fill-rule="evenodd" mask="url(#mask-9)">
                                                <mask id="mask-11" fill="white">
                                                    <use xlink:href="#path-10"></use>
                                                </mask>
                                                <g id="Path"></g>
                                                <polygon id="Path" fill="#C9DBA8" mask="url(#mask-11)" points="0 0 56 0 56 56 0 56"></polygon>
                                            </g>
                                        </g>
                                    </g>
                                </g>
                            </g>
                        </g>
                    </g>
                    <g id="Clipped" transform="translate(6.8367, 6.8367)">
                        <mask id="mask-13" fill="white">
                            <use xlink:href="#path-12"></use>
                        </mask>
                        <g id="Path"></g>
                        <path d="M21.1628909,-0.0011747188 C9.48330259,-0.0011747188 -0.0011747188,9.48330259 -0.0011747188,21.1628909 C-0.0011747188,32.8420875 9.48330259,42.3265649 21.1628909,42.3265649 C32.8420875,42.3265649 42.3265649,32.8420875 42.3265649,21.1628909 C42.3265649,9.48330259 32.8420875,-0.0011747188 21.1628909,-0.0011747188 Z M21.1628909,2.22761087 C31.6137495,2.22761087 40.0977793,10.7116407 40.0977793,21.1628909 C40.0977793,31.6137495 31.6137495,40.0977793 21.1628909,40.0977793 C10.7116407,40.0977793 2.22761087,31.6137495 2.22761087,21.1628909 C2.22761087,10.7116407 10.7116407,2.22761087 21.1628909,2.22761087 Z" id="Shape" fill="#3F5424" mask="url(#mask-13)"></path>
                    </g>
                    <path d="M39.1384461,38.0248363 C39.1384461,37.728422 39.0205851,37.4453208 38.8134474,37.2362253 C38.6039604,37.0290877 38.3208593,36.9108351 38.0248363,36.9108351 L17.9751637,36.9108351 C17.6791407,36.9108351 17.3960396,37.0290877 17.1865526,37.2362253 C16.9794149,37.4453208 16.8615539,37.728422 16.8615539,38.0248363 C16.8615539,38.3208593 16.9794149,38.6039604 17.1865526,38.8134474 C17.3960396,39.0205851 17.6791407,39.1384461 17.9751637,39.1384461 L38.0248363,39.1384461 C38.3208593,39.1384461 38.6039604,39.0205851 38.8134474,38.8134474 C39.0205851,38.6039604 39.1384461,38.3208593 39.1384461,38.0248363 Z" id="Path" fill="#3F5424"></path>
                    <path d="M23.5443866,23.5443866 C23.5443866,23.6176092 23.5408626,23.6904402 23.5338143,23.7628797 C23.5267662,23.8357107 23.516194,23.9077585 23.5017061,23.9790234 C23.4876098,24.0506796 23.4699894,24.1215529 23.4484533,24.1912513 C23.4273088,24.2609498 23.4030318,24.3298652 23.3748392,24.3972143 C23.3470381,24.4645634 23.3161045,24.5303463 23.2816469,24.5945629 C23.2471892,24.659171 23.209599,24.7214298 23.1692678,24.7821223 C23.1285451,24.8428148 23.0850814,24.9015495 23.0388767,24.9579348 C22.9926721,25.0143201 22.9437266,25.068356 22.8920401,25.1196509 C22.8403536,25.1713375 22.7863176,25.220283 22.7299323,25.2664877 C22.673547,25.3130838 22.6152039,25.356156 22.5545114,25.3968787 C22.4938188,25.4372098 22.4311685,25.4748 22.366952,25.5092577 C22.3027353,25.5437154 22.2369525,25.574649 22.1692118,25.6028417 C22.1018627,25.6306427 22.0333389,25.6553113 21.9636404,25.6764557 C21.8935503,25.6976003 21.8230687,25.7152206 21.7514124,25.729317 C21.6797561,25.7438049 21.6077083,25.7543771 21.5352687,25.7614253 C21.4624378,25.7688651 21.3899983,25.7723891 21.3167757,25.7723891 C21.2439447,25.7723891 21.1711137,25.7688651 21.0986743,25.7614253 C21.0258432,25.7543771 20.9537954,25.7438049 20.8821391,25.729317 C20.8108743,25.7152206 20.7400011,25.6976003 20.6703026,25.6764557 C20.6002126,25.6553113 20.5316888,25.6306427 20.4643397,25.6028417 C20.3969906,25.574649 20.3312077,25.5437154 20.2665995,25.5092577 C20.202383,25.4748 20.1397327,25.4372098 20.0790401,25.3968787 C20.0183476,25.356156 19.9600045,25.3130838 19.9036192,25.2664877 C19.8472339,25.220283 19.7931979,25.1713375 19.7415114,25.1196509 C19.6902164,25.068356 19.6412709,25.0143201 19.5946748,24.9579348 C19.5484701,24.9015495 19.5050064,24.8428148 19.4646752,24.7821223 C19.4239525,24.7214298 19.386754,24.659171 19.3522963,24.5945629 C19.3178386,24.5303463 19.2865134,24.4645634 19.2587123,24.3972143 C19.2309112,24.3298652 19.2062427,24.2609498 19.1850982,24.1912513 C19.1639536,24.1215529 19.1463333,24.0506796 19.1318454,23.9790234 C19.1177491,23.9077585 19.1071768,23.8357107 19.0997371,23.7628797 C19.0926889,23.6904402 19.0891649,23.6176092 19.0891649,23.5443866 C19.0891649,23.4715557 19.0926889,23.3987246 19.0997371,23.3262852 C19.1071768,23.2534542 19.1177491,23.1814063 19.1318454,23.1101415 C19.1463333,23.0384852 19.1639536,22.967612 19.1850982,22.8979135 C19.2062427,22.828215 19.2309112,22.7592997 19.2587123,22.6919506 C19.2865134,22.6246014 19.3178386,22.5588186 19.3522963,22.494602 C19.386754,22.4299939 19.4239525,22.3677351 19.4646752,22.3070425 C19.5050064,22.24635 19.5484701,22.1876154 19.5946748,22.1312301 C19.6412709,22.0748448 19.6902164,22.0208088 19.7415114,21.9695139 C19.7931979,21.9178274 19.8472339,21.8688819 19.9036192,21.8226772 C19.9600045,21.776081 20.0183476,21.7330089 20.0790401,21.6922862 C20.1397327,21.6515635 20.202383,21.6143648 20.2665995,21.5799071 C20.3312077,21.5454495 20.3969906,21.5145158 20.4643397,21.4863232 C20.5316888,21.4585222 20.6002126,21.4338536 20.6703026,21.412709 C20.7400011,21.3915646 20.8108743,21.3739442 20.8821391,21.3598478 C20.9537954,21.3453599 21.0258432,21.3347877 21.0986743,21.3277396 C21.1711137,21.3202998 21.2439447,21.3167757 21.3167757,21.3167757 C21.3899983,21.3167757 21.4624378,21.3202998 21.5352687,21.3277396 C21.6077083,21.3347877 21.6797561,21.3453599 21.7514124,21.3598478 C21.8230687,21.3739442 21.8935503,21.3915646 21.9636404,21.412709 C22.0333389,21.4338536 22.1018627,21.4585222 22.1692118,21.4863232 C22.2369525,21.5145158 22.3027353,21.5454495 22.366952,21.5799071 C22.4311685,21.6143648 22.4938188,21.6515635 22.5545114,21.6922862 C22.6152039,21.7330089 22.673547,21.776081 22.7299323,21.8226772 C22.7863176,21.8688819 22.8403536,21.9178274 22.8920401,21.9695139 C22.9437266,22.0208088 22.9926721,22.0748448 23.0388767,22.1312301 C23.0850814,22.1876154 23.1285451,22.24635 23.1692678,22.3070425 C23.209599,22.3677351 23.2471892,22.4299939 23.2816469,22.494602 C23.3161045,22.5588186 23.3470381,22.6246014 23.3748392,22.6919506 C23.4030318,22.7592997 23.4273088,22.828215 23.4484533,22.8979135 C23.4699894,22.967612 23.4876098,23.0384852 23.5017061,23.1101415 C23.516194,23.1814063 23.5267662,23.2534542 23.5338143,23.3262852 C23.5408626,23.3987246 23.5443866,23.4715557 23.5443866,23.5443866 Z" id="Path" fill="#3F5424"></path>
                    <path d="M36.9108351,23.5443866 C36.9108351,23.6176092 36.9073111,23.6904402 36.9002629,23.7628797 C36.8928232,23.8357107 36.8822509,23.9077585 36.8681546,23.9790234 C36.8536667,24.0506796 36.8360464,24.1215529 36.8149018,24.1912513 C36.7937573,24.2609498 36.7690888,24.3298652 36.7412877,24.3972143 C36.7134866,24.4645634 36.6821614,24.5303463 36.6477037,24.5945629 C36.613246,24.659171 36.5760475,24.7214298 36.5353248,24.7821223 C36.4949936,24.8428148 36.4515299,24.9015495 36.4053252,24.9579348 C36.3587291,25.0143201 36.3097836,25.068356 36.2584886,25.1196509 C36.2068021,25.1713375 36.1527661,25.220283 36.0963808,25.2664877 C36.0399955,25.3130838 35.9816524,25.356156 35.9209599,25.3968787 C35.8602673,25.4372098 35.797617,25.4748 35.7334005,25.5092577 C35.6687923,25.5437154 35.6030094,25.574649 35.5356603,25.6028417 C35.4683112,25.6306427 35.3997874,25.6553113 35.3296974,25.6764557 C35.2599989,25.6976003 35.1891257,25.7152206 35.1178609,25.729317 C35.0462046,25.7438049 34.9741568,25.7543771 34.9013257,25.7614253 C34.8288863,25.7688651 34.7560553,25.7723891 34.6832243,25.7723891 C34.6100017,25.7723891 34.5375622,25.7688651 34.4647313,25.7614253 C34.3922917,25.7543771 34.3202439,25.7438049 34.2485876,25.729317 C34.1769313,25.7152206 34.1064497,25.6976003 34.0363596,25.6764557 C33.9666611,25.6553113 33.8981373,25.6306427 33.8307882,25.6028417 C33.7630475,25.574649 33.6972647,25.5437154 33.633048,25.5092577 C33.5688315,25.4748 33.5061812,25.4372098 33.4454886,25.3968787 C33.3847961,25.356156 33.326453,25.3130838 33.2700677,25.2664877 C33.2136824,25.220283 33.1596464,25.1713375 33.1079599,25.1196509 C33.0562734,25.068356 33.0073279,25.0143201 32.9611233,24.9579348 C32.9149186,24.9015495 32.8714549,24.8428148 32.8307322,24.7821223 C32.790401,24.7214298 32.7528108,24.659171 32.7183531,24.5945629 C32.6838955,24.5303463 32.6529619,24.4645634 32.6251608,24.3972143 C32.5969682,24.3298652 32.5726912,24.2609498 32.5515467,24.1912513 C32.5300106,24.1215529 32.5123902,24.0506796 32.4982939,23.9790234 C32.483806,23.9077585 32.4732338,23.8357107 32.4661857,23.7628797 C32.4591374,23.6904402 32.4556134,23.6176092 32.4556134,23.5443866 C32.4556134,23.4715557 32.4591374,23.3987246 32.4661857,23.3262852 C32.4732338,23.2534542 32.483806,23.1814063 32.4982939,23.1101415 C32.5123902,23.0384852 32.5300106,22.967612 32.5515467,22.8979135 C32.5726912,22.828215 32.5969682,22.7592997 32.6251608,22.6919506 C32.6529619,22.6246014 32.6838955,22.5588186 32.7183531,22.494602 C32.7528108,22.4299939 32.790401,22.3677351 32.8307322,22.3070425 C32.8714549,22.24635 32.9149186,22.1876154 32.9611233,22.1312301 C33.0073279,22.0748448 33.0562734,22.0208088 33.1079599,21.9695139 C33.1596464,21.9178274 33.2136824,21.8688819 33.2700677,21.8226772 C33.326453,21.776081 33.3847961,21.7330089 33.4454886,21.6922862 C33.5061812,21.6515635 33.5688315,21.6143648 33.633048,21.5799071 C33.6972647,21.5454495 33.7630475,21.5145158 33.8307882,21.4863232 C33.8981373,21.4585222 33.9666611,21.4338536 34.0363596,21.412709 C34.1064497,21.3915646 34.1769313,21.3739442 34.2485876,21.3598478 C34.3202439,21.3453599 34.3922917,21.3347877 34.4647313,21.3277396 C34.5375622,21.3202998 34.6100017,21.3167757 34.6832243,21.3167757 C34.7560553,21.3167757 34.8288863,21.3202998 34.9013257,21.3277396 C34.9741568,21.3347877 35.0462046,21.3453599 35.1178609,21.3598478 C35.1891257,21.3739442 35.2599989,21.3915646 35.3296974,21.412709 C35.3997874,21.4338536 35.4683112,21.4585222 35.5356603,21.4863232 C35.6030094,21.5145158 35.6687923,21.5454495 35.7334005,21.5799071 C35.797617,21.6143648 35.8602673,21.6515635 35.9209599,21.6922862 C35.9816524,21.7330089 36.0399955,21.776081 36.0963808,21.8226772 C36.1527661,21.8688819 36.2068021,21.9178274 36.2584886,21.9695139 C36.3097836,22.0208088 36.3587291,22.0748448 36.4053252,22.1312301 C36.4515299,22.1876154 36.4949936,22.24635 36.5353248,22.3070425 C36.5760475,22.3677351 36.613246,22.4299939 36.6477037,22.494602 C36.6821614,22.5588186 36.7134866,22.6246014 36.7412877,22.6919506 C36.7690888,22.7592997 36.7937573,22.828215 36.8149018,22.8979135 C36.8360464,22.967612 36.8536667,23.0384852 36.8681546,23.1101415 C36.8822509,23.1814063 36.8928232,23.2534542 36.9002629,23.3262852 C36.9073111,23.3987246 36.9108351,23.4715557 36.9108351,23.5443866 Z" id="Path" fill="#3F5424"></path>
                </g>
            </g>
        </g>
    </g>
</svg>