<?xml version="1.0" encoding="UTF-8"?>
<svg width="56px" height="56px" viewBox="0 0 56 56" version="1.1" xmlns="http://www.w3.org/2000/svg" xmlns:xlink="http://www.w3.org/1999/xlink">
    <title>Group</title>
    <defs>
        <linearGradient x1="50%" y1="19.2864583%" x2="50%" y2="93.1432292%" id="linearGradient-1">
            <stop stop-color="#FFFDFC" offset="0%"></stop>
            <stop stop-color="#F8E7EC" offset="100%"></stop>
        </linearGradient>
        <polygon id="path-2" points="0 0 56 0 56 56 0 56"></polygon>
        <path d="M28,0 C12.5359401,0 0,12.5359401 0,28 C0,43.4640599 12.5359401,56 28,56 C43.4640599,56 56,43.4640599 56,28 C56,12.5359401 43.4640599,0 28,0 Z" id="path-4"></path>
        <rect id="path-6" x="0" y="0" width="56.1346982" height="56.1346982"></rect>
        <polygon id="path-8" points="0 0 56 0 56 56 0 56"></polygon>
        <path d="M28,0 C12.5359401,0 0,12.5359401 0,28 C0,43.4640599 12.5359401,56 28,56 C43.4640599,56 56,43.4640599 56,28 C56,12.5359401 43.4640599,0 28,0 Z" id="path-10"></path>
        <polygon id="path-12" points="0 0 42.3265649 0 42.3265649 42.3265649 0 42.3265649"></polygon>
    </defs>
    <g id="Page-1" stroke="none" stroke-width="1" fill="none" fill-rule="evenodd">
        <g id="Stack" transform="translate(-322, -190)">
            <g id="Stack-3" transform="translate(0, 180)">
                <g id="Group" transform="translate(322, 10)">
                    <g id="Clipped">
                        <mask id="mask-3" fill="white">
                            <use xlink:href="#path-2"></use>
                        </mask>
                        <g id="Path"></g>
                        <g mask="url(#mask-3)">
                            <mask id="mask-5" fill="white">
                                <use xlink:href="#path-4"></use>
                            </mask>
                            <g id="Path"></g>
                            <g id="Group" mask="url(#mask-5)">
                                <g transform="translate(-0.0673, -0.0673)">
                                    <mask id="mask-7" fill="white">
                                        <use xlink:href="#path-6"></use>
                                    </mask>
                                    <g id="Rectangle" stroke="none" fill="none"></g>
                                    <g id="Clipped" stroke="none" stroke-width="1" fill="none" fill-rule="evenodd" mask="url(#mask-7)">
                                        <g transform="translate(0.0673, 0.0673)">
                                            <mask id="mask-9" fill="white">
                                                <use xlink:href="#path-8"></use>
                                            </mask>
                                            <g id="Path" stroke="none" fill="none"></g>
                                            <g id="Clipped" stroke="none" stroke-width="1" fill="none" fill-rule="evenodd" mask="url(#mask-9)">
                                                <mask id="mask-11" fill="white">
                                                    <use xlink:href="#path-10"></use>
                                                </mask>
                                                <g id="Path"></g>
                                                <polygon id="Path" fill="#C9BFE3" mask="url(#mask-11)" points="0 0 56 0 56 56 0 56"></polygon>
                                            </g>
                                        </g>
                                    </g>
                                </g>
                            </g>
                        </g>
                    </g>
                    <g id="Clipped" transform="translate(6.8367, 6.8367)">
                        <mask id="mask-13" fill="white">
                            <use xlink:href="#path-12"></use>
                        </mask>
                        <g id="Path"></g>
                        <path d="M21.1632824,0 C9.49309168,0 0,9.49387486 0,21.1632824 C0,32.8330816 9.49309168,42.3265649 21.1632824,42.3265649 C32.8334732,42.3265649 42.3265649,32.8330816 42.3265649,21.1632824 C42.3265649,9.49387486 32.8334732,0 21.1632824,0 Z M21.1632824,40.562958 C10.4661296,40.562958 1.76360687,31.8600437 1.76360687,21.1632824 C1.76360687,10.4657381 10.4661296,1.76360687 21.1632824,1.76360687 C31.8604352,1.76360687 40.562958,10.4657381 40.562958,21.1632824 C40.562958,31.8600437 31.8604352,40.562958 21.1632824,40.562958 Z" id="Shape" fill="#3B3164" fill-rule="nonzero" mask="url(#mask-13)"></path>
                    </g>
                    <path d="M33.2892543,31.5276053 L22.7072216,31.5276053 C19.7896739,31.5276053 17.416401,33.9000951 17.416401,36.8176428 C17.416401,39.7355821 19.7896739,42.1084634 22.7072216,42.1084634 L33.2892543,42.1084634 C36.2068021,42.1084634 38.580075,39.7355821 38.580075,36.8176428 C38.580075,33.9000951 36.2068021,31.5276053 33.2892543,31.5276053 Z M22.7072216,33.2908206 L33.2892543,33.2908206 C34.7846395,33.2908206 36.0580075,34.2297925 36.570174,35.5470157 L34.4600324,36.6954747 L31.6427253,35.1621078 C31.377636,35.0195783 31.0604688,35.0195783 30.7985121,35.1621078 L27.9862952,36.6946915 L25.1826928,35.1621078 C24.9187783,35.0199698 24.6000447,35.018012 24.3369133,35.1621078 L21.5278291,36.6946915 L19.426302,35.5470157 C19.9384684,34.2301841 21.2118364,33.2908206 22.7072216,33.2908206 Z M33.2892543,40.3448565 L22.7072216,40.3448565 C20.981988,40.3448565 19.5472954,39.0973317 19.244616,37.4570677 L21.1057224,38.4739609 C21.3676792,38.616882 21.687979,38.616882 21.9495441,38.4739609 L24.7586284,36.9409856 L27.5626224,38.4739609 C27.8261453,38.6160989 28.1444873,38.6176652 28.4080102,38.4739609 L31.2206186,36.9402025 L34.0383174,38.4739609 C34.1706662,38.5460088 34.3151535,38.5812497 34.4600324,38.5812497 C34.6049113,38.5812497 34.7513564,38.5452257 34.8821391,38.4739609 L36.75186,37.4562847 C36.4499636,39.0969402 35.015271,40.3448565 33.2892543,40.3448565 Z" id="Shape" fill="#3B3164" fill-rule="nonzero"></path>
                    <path d="M40.2524473,19.6694635 C40.0335627,19.2324775 39.5065167,19.0578397 39.0687476,19.2747664 L32.0127538,22.8019802 C31.7147732,22.9511663 31.5252559,23.2565867 31.5252559,23.5905913 C31.5252559,23.9249874 31.7147732,24.2304078 32.0127538,24.3795938 L39.0687476,27.9071992 C39.1963976,27.9694579 39.3307042,28 39.4634446,28 C39.7853107,28 40.0973877,27.8214466 40.2524473,27.5128937 C40.4689825,27.0766907 40.2935616,26.5472954 39.8577502,26.3291939 L34.3789786,23.5905913 L39.8577502,20.8523801 C40.2935616,20.6342787 40.4689825,20.1048833 40.2524473,19.6694635 Z" id="Path" fill="#3B3164"></path>
                    <path d="M24.4743525,23.5905913 C24.4743525,23.2565867 24.2848353,22.9511663 23.9868546,22.8019802 L16.9308609,19.2747664 C16.4970074,19.059406 15.9660458,19.2340437 15.7479443,19.6694635 C15.530626,20.1048833 15.7064384,20.6342787 16.1422498,20.8523801 L21.6206299,23.5905913 L16.1422498,26.3291939 C15.7064384,26.5472954 15.530626,27.0766907 15.7479443,27.5128937 C15.9030038,27.8214466 16.2142977,28 16.5365554,28 C16.6689042,28 16.8036024,27.9694579 16.9308609,27.9071992 L23.9868546,24.3795938 C24.2852268,24.2304078 24.4743525,23.9249874 24.4743525,23.5905913 Z" id="Path" fill="#3B3164"></path>
                </g>
            </g>
        </g>
    </g>
</svg>